<mxfile host="app.diagrams.net" modified="2024-03-27T08:13:37.764Z" agent="Mozilla/5.0 (Windows NT 10.0; Win64; x64) AppleWebKit/537.36 (KHTML, like Gecko) Chrome/123.0.0.0 Safari/537.36" version="24.1.0" etag="vIADPsdI9dpJcF5SMwpZ" type="device">
  <diagram id="zoYfX06PY21Yp6IB99jb" name="Page-1">
    <mxGraphModel dx="1050" dy="565" grid="0" gridSize="10" guides="1" tooltips="1" connect="1" arrows="1" fold="1" page="0" pageScale="1" pageWidth="1100" pageHeight="850" math="0" shadow="0">
      <root>
        <mxCell id="0" />
        <mxCell id="1" parent="0" />
        <mxCell id="Ga-kbyHoADpimjcUytz1-5" style="edgeStyle=orthogonalEdgeStyle;rounded=0;orthogonalLoop=1;jettySize=auto;html=1;entryX=0;entryY=0.5;entryDx=0;entryDy=0;" edge="1" parent="1" source="Ga-kbyHoADpimjcUytz1-1" target="Ga-kbyHoADpimjcUytz1-2">
          <mxGeometry relative="1" as="geometry" />
        </mxCell>
        <mxCell id="Ga-kbyHoADpimjcUytz1-1" value="&lt;font style=&quot;font-size: 14px;&quot;&gt;&lt;b&gt;Contest&lt;/b&gt;&lt;/font&gt;" style="rounded=0;whiteSpace=wrap;html=1;fillColor=#dae8fc;strokeColor=#6c8ebf;" vertex="1" parent="1">
          <mxGeometry x="60" y="170" width="120" height="60" as="geometry" />
        </mxCell>
        <mxCell id="Ga-kbyHoADpimjcUytz1-2" value="" style="rounded=0;whiteSpace=wrap;html=1;fillColor=#fff2cc;gradientColor=#ffd966;strokeColor=#d6b656;" vertex="1" parent="1">
          <mxGeometry x="270" y="155" width="250" height="90" as="geometry" />
        </mxCell>
        <mxCell id="Ga-kbyHoADpimjcUytz1-3" value="&lt;font style=&quot;font-size: 14px;&quot;&gt;&lt;b&gt;Participate&lt;/b&gt;&lt;/font&gt;" style="rounded=1;whiteSpace=wrap;html=1;fillColor=#d5e8d4;strokeColor=#82b366;" vertex="1" parent="1">
          <mxGeometry x="280" y="185" width="100" height="30" as="geometry" />
        </mxCell>
        <mxCell id="Ga-kbyHoADpimjcUytz1-4" value="&lt;font style=&quot;font-size: 14px;&quot;&gt;&lt;b&gt;Host&lt;/b&gt;&lt;/font&gt;" style="rounded=1;whiteSpace=wrap;html=1;fillColor=#d5e8d4;strokeColor=#82b366;" vertex="1" parent="1">
          <mxGeometry x="400" y="185" width="110" height="30" as="geometry" />
        </mxCell>
        <mxCell id="Ga-kbyHoADpimjcUytz1-6" value="&lt;b&gt;Sorry! There is no upcoming contest !&lt;/b&gt;" style="rounded=0;whiteSpace=wrap;html=1;fillColor=#d5e8d4;gradientColor=#97d077;strokeColor=#82b366;" vertex="1" parent="1">
          <mxGeometry x="50" y="310" width="230" height="40" as="geometry" />
        </mxCell>
        <mxCell id="Ga-kbyHoADpimjcUytz1-7" style="edgeStyle=orthogonalEdgeStyle;rounded=0;orthogonalLoop=1;jettySize=auto;html=1;entryX=0.703;entryY=-0.105;entryDx=0;entryDy=0;entryPerimeter=0;" edge="1" parent="1" source="Ga-kbyHoADpimjcUytz1-3" target="Ga-kbyHoADpimjcUytz1-6">
          <mxGeometry relative="1" as="geometry">
            <Array as="points">
              <mxPoint x="300" y="263" />
              <mxPoint x="212" y="263" />
            </Array>
          </mxGeometry>
        </mxCell>
        <mxCell id="Ga-kbyHoADpimjcUytz1-8" value="&lt;b&gt;No Contest&lt;/b&gt;" style="edgeLabel;html=1;align=center;verticalAlign=middle;resizable=0;points=[];" vertex="1" connectable="0" parent="Ga-kbyHoADpimjcUytz1-7">
          <mxGeometry x="0.1353" y="-1" relative="1" as="geometry">
            <mxPoint y="1" as="offset" />
          </mxGeometry>
        </mxCell>
        <mxCell id="Ga-kbyHoADpimjcUytz1-9" value="" style="rounded=0;whiteSpace=wrap;html=1;" vertex="1" parent="1">
          <mxGeometry x="310" y="310" width="600" height="160" as="geometry" />
        </mxCell>
        <mxCell id="Ga-kbyHoADpimjcUytz1-10" value="&lt;b&gt;&lt;font style=&quot;font-size: 12px;&quot;&gt;Contest Name&lt;/font&gt;&lt;/b&gt;" style="rounded=0;whiteSpace=wrap;html=1;fillColor=#fff2cc;strokeColor=#d6b656;" vertex="1" parent="1">
          <mxGeometry x="310" y="310" width="100" height="40" as="geometry" />
        </mxCell>
        <mxCell id="Ga-kbyHoADpimjcUytz1-11" value="&lt;b&gt;&lt;font style=&quot;font-size: 12px;&quot;&gt;Contest Time&lt;/font&gt;&lt;/b&gt;" style="rounded=0;whiteSpace=wrap;html=1;fillColor=#fff2cc;strokeColor=#d6b656;" vertex="1" parent="1">
          <mxGeometry x="410" y="310" width="100" height="40" as="geometry" />
        </mxCell>
        <mxCell id="Ga-kbyHoADpimjcUytz1-12" value="&lt;b&gt;&lt;font style=&quot;font-size: 12px;&quot;&gt;Registration&lt;/font&gt;&lt;/b&gt;" style="rounded=0;whiteSpace=wrap;html=1;fillColor=#fff2cc;strokeColor=#d6b656;" vertex="1" parent="1">
          <mxGeometry x="510" y="310" width="100" height="40" as="geometry" />
        </mxCell>
        <mxCell id="Ga-kbyHoADpimjcUytz1-13" value="Beginner Level-1" style="rounded=0;whiteSpace=wrap;html=1;" vertex="1" parent="1">
          <mxGeometry x="310" y="350" width="100" height="40" as="geometry" />
        </mxCell>
        <mxCell id="Ga-kbyHoADpimjcUytz1-14" value="11th April, 2024&lt;div&gt;9:00 PM&lt;/div&gt;" style="rounded=0;whiteSpace=wrap;html=1;" vertex="1" parent="1">
          <mxGeometry x="410" y="350" width="100" height="40" as="geometry" />
        </mxCell>
        <mxCell id="Ga-kbyHoADpimjcUytz1-15" value="&lt;u&gt;Register&lt;/u&gt;" style="rounded=0;whiteSpace=wrap;html=1;" vertex="1" parent="1">
          <mxGeometry x="510" y="350" width="100" height="40" as="geometry" />
        </mxCell>
        <mxCell id="Ga-kbyHoADpimjcUytz1-16" value="One Level Up" style="rounded=0;whiteSpace=wrap;html=1;" vertex="1" parent="1">
          <mxGeometry x="310" y="390" width="100" height="40" as="geometry" />
        </mxCell>
        <mxCell id="Ga-kbyHoADpimjcUytz1-17" value="27th March, 2024&lt;div&gt;8:35 PM&lt;/div&gt;" style="rounded=0;whiteSpace=wrap;html=1;" vertex="1" parent="1">
          <mxGeometry x="410" y="390" width="100" height="40" as="geometry" />
        </mxCell>
        <mxCell id="Ga-kbyHoADpimjcUytz1-18" value="Registered" style="rounded=0;whiteSpace=wrap;html=1;" vertex="1" parent="1">
          <mxGeometry x="510" y="390" width="100" height="40" as="geometry" />
        </mxCell>
        <mxCell id="Ga-kbyHoADpimjcUytz1-19" value="&lt;b&gt;&lt;font style=&quot;font-size: 12px;&quot;&gt;Author&lt;/font&gt;&lt;/b&gt;" style="rounded=0;whiteSpace=wrap;html=1;fillColor=#fff2cc;strokeColor=#d6b656;" vertex="1" parent="1">
          <mxGeometry x="710" y="310" width="100" height="40" as="geometry" />
        </mxCell>
        <mxCell id="Ga-kbyHoADpimjcUytz1-20" value="&lt;u&gt;Rayhan&lt;/u&gt;" style="rounded=0;whiteSpace=wrap;html=1;" vertex="1" parent="1">
          <mxGeometry x="710" y="350" width="100" height="40" as="geometry" />
        </mxCell>
        <mxCell id="Ga-kbyHoADpimjcUytz1-21" value="XYZ" style="rounded=0;whiteSpace=wrap;html=1;" vertex="1" parent="1">
          <mxGeometry x="710" y="390" width="100" height="40" as="geometry" />
        </mxCell>
        <mxCell id="Ga-kbyHoADpimjcUytz1-23" value="&lt;b&gt;&lt;font style=&quot;font-size: 12px;&quot;&gt;Contest type&lt;/font&gt;&lt;/b&gt;" style="rounded=0;whiteSpace=wrap;html=1;fillColor=#fff2cc;strokeColor=#d6b656;" vertex="1" parent="1">
          <mxGeometry x="610" y="310" width="100" height="40" as="geometry" />
        </mxCell>
        <mxCell id="Ga-kbyHoADpimjcUytz1-24" value="Individual" style="rounded=0;whiteSpace=wrap;html=1;" vertex="1" parent="1">
          <mxGeometry x="610" y="350" width="100" height="40" as="geometry" />
        </mxCell>
        <mxCell id="Ga-kbyHoADpimjcUytz1-25" value="Individual/Team" style="rounded=0;whiteSpace=wrap;html=1;" vertex="1" parent="1">
          <mxGeometry x="610" y="390" width="100" height="40" as="geometry" />
        </mxCell>
        <mxCell id="Ga-kbyHoADpimjcUytz1-26" style="edgeStyle=orthogonalEdgeStyle;rounded=0;orthogonalLoop=1;jettySize=auto;html=1;entryX=0.664;entryY=-0.065;entryDx=0;entryDy=0;entryPerimeter=0;" edge="1" parent="1" source="Ga-kbyHoADpimjcUytz1-3" target="Ga-kbyHoADpimjcUytz1-11">
          <mxGeometry relative="1" as="geometry">
            <Array as="points">
              <mxPoint x="330" y="270" />
              <mxPoint x="476" y="270" />
            </Array>
          </mxGeometry>
        </mxCell>
        <mxCell id="Ga-kbyHoADpimjcUytz1-27" value="&lt;b&gt;Available&lt;/b&gt;" style="edgeLabel;html=1;align=center;verticalAlign=middle;resizable=0;points=[];" vertex="1" connectable="0" parent="Ga-kbyHoADpimjcUytz1-26">
          <mxGeometry x="0.2127" y="1" relative="1" as="geometry">
            <mxPoint as="offset" />
          </mxGeometry>
        </mxCell>
        <mxCell id="Ga-kbyHoADpimjcUytz1-28" value="" style="rounded=0;whiteSpace=wrap;html=1;" vertex="1" parent="1">
          <mxGeometry x="50" y="510" width="400" height="310" as="geometry" />
        </mxCell>
        <mxCell id="Ga-kbyHoADpimjcUytz1-29" value="&lt;font style=&quot;font-size: 18px;&quot;&gt;Team Contest Registration&lt;/font&gt;" style="text;html=1;align=center;verticalAlign=middle;whiteSpace=wrap;rounded=0;" vertex="1" parent="1">
          <mxGeometry x="130" y="530" width="230" height="30" as="geometry" />
        </mxCell>
        <mxCell id="Ga-kbyHoADpimjcUytz1-30" value="&amp;nbsp;Team name" style="rounded=1;whiteSpace=wrap;html=1;align=left;" vertex="1" parent="1">
          <mxGeometry x="70" y="580" width="360" height="40" as="geometry" />
        </mxCell>
        <mxCell id="Ga-kbyHoADpimjcUytz1-31" value="&amp;nbsp;CodeSphere Username/Email of Team member - 1" style="rounded=1;whiteSpace=wrap;html=1;align=left;" vertex="1" parent="1">
          <mxGeometry x="70" y="630" width="360" height="40" as="geometry" />
        </mxCell>
        <mxCell id="Ga-kbyHoADpimjcUytz1-32" value="&amp;nbsp;CodeSphere Username/Email of Team member - 2" style="rounded=1;whiteSpace=wrap;html=1;align=left;" vertex="1" parent="1">
          <mxGeometry x="70" y="680" width="360" height="40" as="geometry" />
        </mxCell>
        <mxCell id="Ga-kbyHoADpimjcUytz1-33" value="&amp;nbsp;CodeSphere Username/Email of Team member - 3" style="rounded=1;whiteSpace=wrap;html=1;align=left;" vertex="1" parent="1">
          <mxGeometry x="70" y="730" width="360" height="40" as="geometry" />
        </mxCell>
        <mxCell id="Ga-kbyHoADpimjcUytz1-34" value="" style="rounded=0;whiteSpace=wrap;html=1;" vertex="1" parent="1">
          <mxGeometry x="530" y="510" width="260" height="310" as="geometry" />
        </mxCell>
        <mxCell id="Ga-kbyHoADpimjcUytz1-35" value="&lt;b&gt;&lt;font style=&quot;font-size: 14px;&quot;&gt;Next&lt;/font&gt;&lt;/b&gt;" style="rounded=0;whiteSpace=wrap;html=1;fillColor=#d5e8d4;gradientColor=#97d077;strokeColor=#82b366;" vertex="1" parent="1">
          <mxGeometry x="190" y="780" width="80" height="30" as="geometry" />
        </mxCell>
        <mxCell id="Ga-kbyHoADpimjcUytz1-38" style="edgeStyle=orthogonalEdgeStyle;rounded=0;orthogonalLoop=1;jettySize=auto;html=1;entryX=0.007;entryY=0.433;entryDx=0;entryDy=0;entryPerimeter=0;" edge="1" parent="1" source="Ga-kbyHoADpimjcUytz1-35" target="Ga-kbyHoADpimjcUytz1-34">
          <mxGeometry relative="1" as="geometry">
            <Array as="points">
              <mxPoint x="500" y="795" />
              <mxPoint x="500" y="644" />
            </Array>
          </mxGeometry>
        </mxCell>
        <mxCell id="Ga-kbyHoADpimjcUytz1-39" value="&lt;font style=&quot;font-size: 18px;&quot;&gt;Rules &amp;amp; Instructions&lt;/font&gt;" style="text;html=1;align=center;verticalAlign=middle;whiteSpace=wrap;rounded=0;" vertex="1" parent="1">
          <mxGeometry x="565" y="540" width="190" height="30" as="geometry" />
        </mxCell>
        <mxCell id="Ga-kbyHoADpimjcUytz1-40" value="" style="rounded=1;whiteSpace=wrap;html=1;" vertex="1" parent="1">
          <mxGeometry x="560" y="590" width="210" height="80" as="geometry" />
        </mxCell>
        <mxCell id="Ga-kbyHoADpimjcUytz1-41" value="" style="endArrow=none;html=1;rounded=0;" edge="1" parent="1">
          <mxGeometry width="50" height="50" relative="1" as="geometry">
            <mxPoint x="580" y="620" as="sourcePoint" />
            <mxPoint x="750" y="620" as="targetPoint" />
            <Array as="points">
              <mxPoint x="670" y="620" />
            </Array>
          </mxGeometry>
        </mxCell>
        <mxCell id="Ga-kbyHoADpimjcUytz1-43" value="" style="endArrow=none;html=1;rounded=0;" edge="1" parent="1">
          <mxGeometry width="50" height="50" relative="1" as="geometry">
            <mxPoint x="580" y="630" as="sourcePoint" />
            <mxPoint x="750" y="630" as="targetPoint" />
            <Array as="points">
              <mxPoint x="670" y="630" />
            </Array>
          </mxGeometry>
        </mxCell>
        <mxCell id="Ga-kbyHoADpimjcUytz1-44" value="" style="endArrow=none;html=1;rounded=0;" edge="1" parent="1">
          <mxGeometry width="50" height="50" relative="1" as="geometry">
            <mxPoint x="580" y="639.5" as="sourcePoint" />
            <mxPoint x="750" y="639.5" as="targetPoint" />
            <Array as="points">
              <mxPoint x="670" y="639.5" />
            </Array>
          </mxGeometry>
        </mxCell>
        <mxCell id="Ga-kbyHoADpimjcUytz1-46" value="" style="rounded=0;whiteSpace=wrap;html=1;" vertex="1" parent="1">
          <mxGeometry x="560" y="715" width="10" height="10" as="geometry" />
        </mxCell>
        <mxCell id="Ga-kbyHoADpimjcUytz1-48" value="&lt;font style=&quot;font-size: 14px;&quot;&gt;Agree&lt;/font&gt;" style="text;html=1;align=center;verticalAlign=middle;whiteSpace=wrap;rounded=0;" vertex="1" parent="1">
          <mxGeometry x="570" y="705" width="60" height="30" as="geometry" />
        </mxCell>
        <mxCell id="Ga-kbyHoADpimjcUytz1-49" value="&lt;font style=&quot;font-size: 14px;&quot;&gt;Disagree&lt;/font&gt;" style="text;html=1;align=center;verticalAlign=middle;whiteSpace=wrap;rounded=0;" vertex="1" parent="1">
          <mxGeometry x="570" y="730" width="70" height="30" as="geometry" />
        </mxCell>
        <mxCell id="Ga-kbyHoADpimjcUytz1-51" value="" style="rounded=0;whiteSpace=wrap;html=1;" vertex="1" parent="1">
          <mxGeometry x="560" y="740" width="10" height="10" as="geometry" />
        </mxCell>
        <mxCell id="Ga-kbyHoADpimjcUytz1-62" style="edgeStyle=orthogonalEdgeStyle;rounded=0;orthogonalLoop=1;jettySize=auto;html=1;entryX=0;entryY=0.5;entryDx=0;entryDy=0;" edge="1" parent="1" source="Ga-kbyHoADpimjcUytz1-53" target="Ga-kbyHoADpimjcUytz1-61">
          <mxGeometry relative="1" as="geometry" />
        </mxCell>
        <mxCell id="Ga-kbyHoADpimjcUytz1-53" value="&lt;b&gt;&lt;font style=&quot;font-size: 14px;&quot;&gt;Register&lt;/font&gt;&lt;/b&gt;" style="rounded=0;whiteSpace=wrap;html=1;fillColor=#d5e8d4;gradientColor=#97d077;strokeColor=#82b366;" vertex="1" parent="1">
          <mxGeometry x="625" y="780" width="80" height="30" as="geometry" />
        </mxCell>
        <mxCell id="Ga-kbyHoADpimjcUytz1-54" value="Team Registration" style="rounded=0;whiteSpace=wrap;html=1;fillColor=#fff2cc;gradientColor=#ffd966;strokeColor=#d6b656;" vertex="1" parent="1">
          <mxGeometry x="140" y="425" width="120" height="30" as="geometry" />
        </mxCell>
        <mxCell id="Ga-kbyHoADpimjcUytz1-55" style="edgeStyle=orthogonalEdgeStyle;rounded=0;orthogonalLoop=1;jettySize=auto;html=1;entryX=0.374;entryY=-0.008;entryDx=0;entryDy=0;entryPerimeter=0;" edge="1" parent="1" source="Ga-kbyHoADpimjcUytz1-54" target="Ga-kbyHoADpimjcUytz1-28">
          <mxGeometry relative="1" as="geometry" />
        </mxCell>
        <mxCell id="Ga-kbyHoADpimjcUytz1-56" value="Individual Registration" style="rounded=0;whiteSpace=wrap;html=1;fillColor=#fff2cc;gradientColor=#ffd966;strokeColor=#d6b656;" vertex="1" parent="1">
          <mxGeometry x="850" y="630" width="130" height="30" as="geometry" />
        </mxCell>
        <mxCell id="Ga-kbyHoADpimjcUytz1-57" style="edgeStyle=orthogonalEdgeStyle;rounded=0;orthogonalLoop=1;jettySize=auto;html=1;entryX=1.012;entryY=0.433;entryDx=0;entryDy=0;entryPerimeter=0;" edge="1" parent="1" source="Ga-kbyHoADpimjcUytz1-56" target="Ga-kbyHoADpimjcUytz1-34">
          <mxGeometry relative="1" as="geometry" />
        </mxCell>
        <mxCell id="Ga-kbyHoADpimjcUytz1-58" value="&lt;b&gt;&lt;font style=&quot;font-size: 12px;&quot;&gt;Count down&lt;/font&gt;&lt;/b&gt;" style="rounded=0;whiteSpace=wrap;html=1;fillColor=#fff2cc;strokeColor=#d6b656;" vertex="1" parent="1">
          <mxGeometry x="810" y="310" width="100" height="40" as="geometry" />
        </mxCell>
        <mxCell id="Ga-kbyHoADpimjcUytz1-59" value="&lt;u&gt;=&lt;/u&gt;" style="rounded=0;whiteSpace=wrap;html=1;" vertex="1" parent="1">
          <mxGeometry x="810" y="350" width="100" height="40" as="geometry" />
        </mxCell>
        <mxCell id="Ga-kbyHoADpimjcUytz1-60" value="39:06" style="rounded=0;whiteSpace=wrap;html=1;" vertex="1" parent="1">
          <mxGeometry x="810" y="390" width="100" height="40" as="geometry" />
        </mxCell>
        <mxCell id="Ga-kbyHoADpimjcUytz1-61" value="Count down Start" style="rounded=0;whiteSpace=wrap;html=1;fillColor=#fff2cc;gradientColor=#ffd966;strokeColor=#d6b656;" vertex="1" parent="1">
          <mxGeometry x="860" y="780" width="130" height="30" as="geometry" />
        </mxCell>
        <mxCell id="Ga-kbyHoADpimjcUytz1-63" value="" style="endArrow=classic;html=1;rounded=0;" edge="1" parent="1">
          <mxGeometry width="50" height="50" relative="1" as="geometry">
            <mxPoint x="510" y="200" as="sourcePoint" />
            <mxPoint x="900" y="200" as="targetPoint" />
          </mxGeometry>
        </mxCell>
      </root>
    </mxGraphModel>
  </diagram>
</mxfile>
